<svg id="logo" xmlns="http://www.w3.org/2000/svg" width="54" height="54" viewBox="0 0 54 54">
    <path id="Path_140" data-name="Path 140" d="M65.712,243.752a1.623,1.623,0,1,1-1.573-1.887A1.709,1.709,0,0,1,65.712,243.752Zm4.011-.236a1.78,1.78,0,0,0-1.809,1.809v2.91a1.809,1.809,0,1,0,3.618,0v-2.91A1.78,1.78,0,0,0,69.723,243.516Zm15.65-10.145c1.651,7.471-2.674,10.381-2.674,10.381a12.729,12.729,0,0,1-3.853,7.628,12.725,12.725,0,0,1-18.245,0,12.729,12.729,0,0,1-3.853-7.628s-4.325-2.91-2.674-10.381l-1.573-.079h0a9.92,9.92,0,0,1,5.9-5.741,9.377,9.377,0,0,1,8.808,1.337,12.713,12.713,0,0,1,4.876,0,9.317,9.317,0,0,1,8.808-1.337,9.651,9.651,0,0,1,5.9,5.741h0Zm-25.008-.708a13.688,13.688,0,0,1,4.089-2.831c-.315-.315-5.584-1.494-8.179,2.2h1.809s-3.146,2.2-1.416,7.628A13.768,13.768,0,0,1,60.364,232.664Zm20.211,9.28a10.853,10.853,0,1,0-10.853,10.931A10.891,10.891,0,0,0,80.575,241.944Zm.786-9.909H83.17c-2.6-3.7-7.864-2.517-8.179-2.2a13.594,13.594,0,0,1,7.786,9.83C84.507,234.237,81.362,232.035,81.362,232.035Zm-6.055,9.83a1.709,1.709,0,0,0-1.573,1.887,1.623,1.623,0,1,0,1.573-1.887Z" transform="translate(-42.644 -213.12)" fill="white"/>
</svg>
